{
	"asset":{
		"generator":"Khronos glTF Blender I/O v3.6.27",
		"version":"2.0"
	},
	"extensionsUsed":[
		"KHR_materials_specular",
		"KHR_materials_ior"
	],
	"scene":0,
	"scenes":[
		{
			"name":"Scene",
			"nodes":[
				26
			]
		}
	],
	"nodes":[
		{
			"mesh":0,
			"name":"Sinonatrix_Transp-material"
		},
		{
			"children":[
				0
			],
			"name":"BottomScreen",
			"translation":[
				0,
				0.8411669731140137,
				-0.13177970051765442
			]
		},
		{
			"mesh":1,
			"name":"Sinonatrix_Cockpit-material.004"
		},
		{
			"children":[
				2
			],
			"name":"Canopy.Export",
			"translation":[
				-1.6699689626693726,
				-4.3449811935424805,
				-1.631417989730835
			]
		},
		{
			"name":"Object_14"
		},
		{
			"mesh":2,
			"name":"Sinonatrix_Cockpit-material.005"
		},
		{
			"children":[
				4,
				5
			],
			"name":"Dashboard.Export",
			"translation":[
				0,
				0.8411669731140137,
				-0.13177970051765442
			]
		},
		{
			"mesh":3,
			"name":"Hull-material"
		},
		{
			"children":[
				7
			],
			"name":"Fuselage.Hi.Lambo.009",
			"translation":[
				-1.6699689626693726,
				-4.3215532302856445,
				-1.6262580156326294
			]
		},
		{
			"mesh":4,
			"name":"Sinonatrix_Cockpit-material"
		},
		{
			"children":[
				9
			],
			"name":"Left.Export",
			"translation":[
				-1.6699689626693726,
				-4.3449811935424805,
				-1.631417989730835
			]
		},
		{
			"mesh":5,
			"name":"Sinonatrix_Cockpit-material.006"
		},
		{
			"children":[
				11
			],
			"name":"Monitor-MFD.012",
			"rotation":[
				0.40776678919792175,
				0,
				0,
				0.9130861163139343
			],
			"translation":[
				0.3299376964569092,
				0.6194195747375488,
				-0.42204880714416504
			]
		},
		{
			"mesh":6,
			"name":"Sinonatrix_Cockpit-material.001"
		},
		{
			"children":[
				13
			],
			"name":"Right.Export",
			"translation":[
				-1.6699689626693726,
				-4.3449811935424805,
				-1.631417989730835
			]
		},
		{
			"mesh":7,
			"name":"Sinonatrix_Screens-material.001"
		},
		{
			"children":[
				15
			],
			"name":"Screen.DashboardExport",
			"translation":[
				0,
				0.8411669731140137,
				-0.13177970051765442
			]
		},
		{
			"mesh":8,
			"name":"Sinonatrix_Screens-material"
		},
		{
			"children":[
				17
			],
			"name":"Screen.Sidepanel.Export",
			"rotation":[
				0.1556980013847351,
				0,
				0,
				0.9878047704696655
			],
			"translation":[
				0.014577750116586685,
				0.23624910414218903,
				-0.4681374132633209
			]
		},
		{
			"name":"Object_7"
		},
		{
			"mesh":9,
			"name":"Sinonatrix_Cockpit-material.002"
		},
		{
			"children":[
				19,
				20
			],
			"name":"Seat.Export",
			"translation":[
				0,
				-0.1560600996017456,
				-0.7108504772186279
			]
		},
		{
			"mesh":10,
			"name":"Sinonatrix_Cockpit-material.003"
		},
		{
			"children":[
				22
			],
			"name":"Sidepanel.Export",
			"rotation":[
				0.1556980013847351,
				0,
				0,
				0.9878047704696655
			],
			"translation":[
				0.014577750116586685,
				0.23624910414218903,
				-0.4681374132633209
			]
		},
		{
			"mesh":11,
			"name":"Screen_material_transparent-material"
		},
		{
			"children":[
				24
			],
			"name":"Sidepanel.Export.001",
			"rotation":[
				0.1556980013847351,
				0,
				0,
				0.9878047704696655
			],
			"translation":[
				0.014577750116586685,
				0.23624910414218903,
				-0.4681374132633209
			]
		},
		{
			"children":[
				1,
				3,
				6,
				8,
				10,
				12,
				14,
				16,
				18,
				21,
				23,
				25
			],
			"name":"Collada visual scene group",
			"rotation":[
				-0.70710688829422,
				0,
				0,
				0.7071066498756409
			]
		}
	],
	"materials":[
		{
			"alphaMode":"BLEND",
			"doubleSided":true,
			"name":"Sinonatrix.Transp",
			"pbrMetallicRoughness":{
				"baseColorFactor":[
					0.7527838349342346,
					0.7527838349342346,
					0.7527838349342346,
					0.502150297164917
				],
				"baseColorTexture":{
					"index":0
				},
				"metallicFactor":0,
				"metallicRoughnessTexture":{
					"index":1
				}
			}
		},
		{
			"doubleSided":true,
			"emissiveFactor":[
				1,
				1,
				1
			],
			"emissiveTexture":{
				"index":2
			},
			"extensions":{
				"KHR_materials_specular":{
					"specularColorFactor":[
						0.999999981133081,
						0.999999981133081,
						0.999999981133081
					]
				},
				"KHR_materials_ior":{
					"ior":1.3799999952316284
				}
			},
			"name":"Sinonatrix.Cockpit",
			"normalTexture":{
				"index":3
			},
			"pbrMetallicRoughness":{
				"baseColorFactor":[
					0.07382776588201523,
					0.015175238251686096,
					0.08021926134824753,
					1
				],
				"baseColorTexture":{
					"index":4
				},
				"metallicFactor":0.4399999976158142,
				"roughnessFactor":0.20000000298023224
			}
		},
		{
			"doubleSided":true,
			"name":"Hull",
			"normalTexture":{
				"index":5
			},
			"pbrMetallicRoughness":{
				"baseColorTexture":{
					"index":6
				},
				"metallicRoughnessTexture":{
					"index":7
				},
				"roughnessFactor":0.971393883228302
			}
		},
		{
			"doubleSided":true,
			"emissiveFactor":[
				1,
				1,
				1
			],
			"emissiveTexture":{
				"index":8
			},
			"name":"Sinonatrix.Screens",
			"pbrMetallicRoughness":{
				"baseColorFactor":[
					0.234895259141922,
					0.234895259141922,
					0.234895259141922,
					1
				],
				"baseColorTexture":{
					"index":9
				},
				"metallicFactor":0.8999999761581421,
				"roughnessFactor":0
			}
		},
		{
			"alphaMode":"BLEND",
			"doubleSided":true,
			"name":"Screen_material_transparent",
			"pbrMetallicRoughness":{
				"baseColorFactor":[
					0.0072410935536026955,
					0.006585979368537664,
					0.011413541622459888,
					0.19218799471855164
				],
				"metallicFactor":0,
				"roughnessFactor":0.6000000238418579
			}
		}
	],
	"meshes":[
		{
			"name":"Mesh_10",
			"primitives":[
				{
					"attributes":{
						"POSITION":0,
						"NORMAL":1,
						"TEXCOORD_0":2
					},
					"indices":3,
					"material":0
				}
			]
		},
		{
			"name":"Mesh_5",
			"primitives":[
				{
					"attributes":{
						"POSITION":4,
						"NORMAL":5,
						"TEXCOORD_0":6
					},
					"indices":7,
					"material":1
				}
			]
		},
		{
			"name":"Mesh_7",
			"primitives":[
				{
					"attributes":{
						"POSITION":8,
						"NORMAL":9,
						"TEXCOORD_0":10
					},
					"indices":11,
					"material":1
				}
			]
		},
		{
			"name":"Mesh_12",
			"primitives":[
				{
					"attributes":{
						"POSITION":12,
						"NORMAL":13,
						"TEXCOORD_0":14,
						"TEXCOORD_1":15
					},
					"indices":16,
					"material":2
				}
			]
		},
		{
			"name":"Mesh_0",
			"primitives":[
				{
					"attributes":{
						"POSITION":17,
						"NORMAL":18,
						"TEXCOORD_0":19
					},
					"indices":20,
					"material":1
				}
			]
		},
		{
			"name":"Mesh_13",
			"primitives":[
				{
					"attributes":{
						"POSITION":21,
						"NORMAL":22,
						"TEXCOORD_0":23
					},
					"indices":24,
					"material":1
				}
			]
		},
		{
			"name":"Mesh_1",
			"primitives":[
				{
					"attributes":{
						"POSITION":25,
						"NORMAL":26,
						"TEXCOORD_0":27
					},
					"indices":28,
					"material":1
				}
			]
		},
		{
			"name":"Mesh_9",
			"primitives":[
				{
					"attributes":{
						"POSITION":29,
						"NORMAL":30,
						"TEXCOORD_0":31
					},
					"indices":32,
					"material":3
				}
			]
		},
		{
			"name":"Mesh_8",
			"primitives":[
				{
					"attributes":{
						"POSITION":33,
						"NORMAL":34,
						"TEXCOORD_0":35
					},
					"indices":36,
					"material":3
				}
			]
		},
		{
			"name":"Mesh_3",
			"primitives":[
				{
					"attributes":{
						"POSITION":37,
						"NORMAL":38,
						"TEXCOORD_0":39
					},
					"indices":40,
					"material":1
				}
			]
		},
		{
			"name":"Mesh_4",
			"primitives":[
				{
					"attributes":{
						"POSITION":41,
						"NORMAL":42,
						"TEXCOORD_0":43
					},
					"indices":44,
					"material":1
				}
			]
		},
		{
			"name":"Mesh_11",
			"primitives":[
				{
					"attributes":{
						"POSITION":45,
						"NORMAL":46
					},
					"indices":47,
					"material":4
				}
			]
		}
	],
	"textures":[
		{
			"sampler":0,
			"source":0
		},
		{
			"sampler":0,
			"source":1
		},
		{
			"sampler":0,
			"source":2
		},
		{
			"sampler":0,
			"source":3
		},
		{
			"sampler":0,
			"source":4
		},
		{
			"sampler":0,
			"source":5
		},
		{
			"sampler":0,
			"source":6
		},
		{
			"sampler":0,
			"source":7
		},
		{
			"sampler":0,
			"source":8
		},
		{
			"sampler":0,
			"source":9
		}
	],
	"images":[
		{
			"mimeType":"image/png",
			"name":"baseColor2 image",
			"uri":"baseColor2%20image.png"
		},
		{
			"mimeType":"image/png",
			"name":"metallicRoughness3 image",
			"uri":"metallicRoughness3%20image.png"
		},
		{
			"mimeType":"image/png",
			"name":"Sinonatrix image",
			"uri":"Sinonatrix%20image.png"
		},
		{
			"mimeType":"image/png",
			"name":"Sinonatrix image",
			"uri":"Sinonatrix%20image-1.png"
		},
		{
			"mimeType":"image/png",
			"name":"Sinonatrix image",
			"uri":"Sinonatrix%20image-2.png"
		},
		{
			"mimeType":"image/png",
			"name":"Hull (Normal) image",
			"uri":"Hull%20Normal%20image.png"
		},
		{
			"mimeType":"image/png",
			"name":"baseColor4 image",
			"uri":"baseColor4%20image.png"
		},
		{
			"mimeType":"image/png",
			"name":"metallicRoughness5 image",
			"uri":"metallicRoughness5%20image.png"
		},
		{
			"mimeType":"image/png",
			"name":"blob:https:__sandbox image",
			"uri":"blobhttps__sandbox%20image.png"
		},
		{
			"mimeType":"image/png",
			"name":"Sinonatrix image",
			"uri":"Sinonatrix%20image-3.png"
		}
	],
	"accessors":[
		{
			"bufferView":0,
			"componentType":5126,
			"count":143,
			"max":[
				0.28943121433258057,
				0.0752817913889885,
				-0.9555876851081848
			],
			"min":[
				-0.2894308865070343,
				-0.14934000372886658,
				-1.3074519634246826
			],
			"type":"VEC3"
		},
		{
			"bufferView":1,
			"componentType":5126,
			"count":143,
			"type":"VEC3"
		},
		{
			"bufferView":2,
			"componentType":5126,
			"count":143,
			"type":"VEC2"
		},
		{
			"bufferView":3,
			"componentType":5123,
			"count":720,
			"type":"SCALAR"
		},
		{
			"bufferView":4,
			"componentType":5126,
			"count":23738,
			"max":[
				2.52902889251709,
				5.632719039916992,
				1.9832650423049927
			],
			"min":[
				0.8120375275611877,
				2.934540033340454,
				-0.6067283749580383
			],
			"type":"VEC3"
		},
		{
			"bufferView":5,
			"componentType":5126,
			"count":23738,
			"type":"VEC3"
		},
		{
			"bufferView":6,
			"componentType":5126,
			"count":23738,
			"type":"VEC2"
		},
		{
			"bufferView":7,
			"componentType":5123,
			"count":45054,
			"type":"SCALAR"
		},
		{
			"bufferView":8,
			"componentType":5126,
			"count":56378,
			"max":[
				0.5938624739646912,
				0.09975022077560425,
				-0.03324681147933006
			],
			"min":[
				-0.5938624739646912,
				-1.4058350324630737,
				-1.5284860134124756
			],
			"type":"VEC3"
		},
		{
			"bufferView":9,
			"componentType":5126,
			"count":56378,
			"type":"VEC3"
		},
		{
			"bufferView":10,
			"componentType":5126,
			"count":56378,
			"type":"VEC2"
		},
		{
			"bufferView":11,
			"componentType":5123,
			"count":104604,
			"type":"SCALAR"
		},
		{
			"bufferView":12,
			"componentType":5126,
			"count":1326,
			"max":[
				4.644828796386719,
				10.882049560546875,
				2.223465919494629
			],
			"min":[
				-4.644828796386719,
				0.6811649799346924,
				0.2115301936864853
			],
			"type":"VEC3"
		},
		{
			"bufferView":13,
			"componentType":5126,
			"count":1326,
			"type":"VEC3"
		},
		{
			"bufferView":14,
			"componentType":5126,
			"count":1326,
			"type":"VEC2"
		},
		{
			"bufferView":15,
			"componentType":5126,
			"count":1326,
			"type":"VEC2"
		},
		{
			"bufferView":16,
			"componentType":5123,
			"count":3378,
			"type":"SCALAR"
		},
		{
			"bufferView":17,
			"componentType":5126,
			"count":14576,
			"max":[
				1.1255110502243042,
				5.4231181144714355,
				1.8504530191421509
			],
			"min":[
				0.8277776837348938,
				2.92461895942688,
				-0.007271468173712492
			],
			"type":"VEC3"
		},
		{
			"bufferView":18,
			"componentType":5126,
			"count":14576,
			"type":"VEC3"
		},
		{
			"bufferView":19,
			"componentType":5126,
			"count":14576,
			"type":"VEC2"
		},
		{
			"bufferView":20,
			"componentType":5123,
			"count":27198,
			"type":"SCALAR"
		},
		{
			"bufferView":21,
			"componentType":5126,
			"count":117,
			"max":[
				0.16904619336128235,
				0.015191669575870037,
				0.003202140098437667
			],
			"min":[
				-0.16904619336128235,
				-0.01598823070526123,
				0
			],
			"type":"VEC3"
		},
		{
			"bufferView":22,
			"componentType":5126,
			"count":117,
			"type":"VEC3"
		},
		{
			"bufferView":23,
			"componentType":5126,
			"count":117,
			"type":"VEC2"
		},
		{
			"bufferView":24,
			"componentType":5123,
			"count":204,
			"type":"SCALAR"
		},
		{
			"bufferView":25,
			"componentType":5126,
			"count":13969,
			"max":[
				2.501970052719116,
				5.423604965209961,
				1.8050709962844849
			],
			"min":[
				2.2415390014648438,
				2.9073760509490967,
				-0.010606340132653713
			],
			"type":"VEC3"
		},
		{
			"bufferView":26,
			"componentType":5126,
			"count":13969,
			"type":"VEC3"
		},
		{
			"bufferView":27,
			"componentType":5126,
			"count":13969,
			"type":"VEC2"
		},
		{
			"bufferView":28,
			"componentType":5123,
			"count":27018,
			"type":"SCALAR"
		},
		{
			"bufferView":29,
			"componentType":5126,
			"count":383,
			"max":[
				0.4728972017765045,
				-0.033167481422424316,
				-0.08910536020994186
			],
			"min":[
				-0.4728972017765045,
				-0.19775250554084778,
				-0.2596991956233978
			],
			"type":"VEC3"
		},
		{
			"bufferView":30,
			"componentType":5126,
			"count":383,
			"type":"VEC3"
		},
		{
			"bufferView":31,
			"componentType":5126,
			"count":383,
			"type":"VEC2"
		},
		{
			"bufferView":32,
			"componentType":5123,
			"count":1686,
			"type":"SCALAR"
		},
		{
			"bufferView":33,
			"componentType":5126,
			"count":146,
			"max":[
				0.5023298263549805,
				0.27576929330825806,
				0.13839930295944214
			],
			"min":[
				-0.4881969094276428,
				0.1548919975757599,
				-0.024945130571722984
			],
			"type":"VEC3"
		},
		{
			"bufferView":34,
			"componentType":5126,
			"count":146,
			"type":"VEC3"
		},
		{
			"bufferView":35,
			"componentType":5126,
			"count":146,
			"type":"VEC2"
		},
		{
			"bufferView":36,
			"componentType":5123,
			"count":516,
			"type":"SCALAR"
		},
		{
			"bufferView":37,
			"componentType":5126,
			"count":36298,
			"max":[
				0.34430089592933655,
				1.047536015510559,
				0.869158923625946
			],
			"min":[
				-0.34430089592933655,
				-0.22768719494342804,
				-1.0851190090179443
			],
			"type":"VEC3"
		},
		{
			"bufferView":38,
			"componentType":5126,
			"count":36298,
			"type":"VEC3"
		},
		{
			"bufferView":39,
			"componentType":5126,
			"count":36298,
			"type":"VEC2"
		},
		{
			"bufferView":40,
			"componentType":5123,
			"count":89928,
			"type":"SCALAR"
		},
		{
			"bufferView":41,
			"componentType":5126,
			"count":42328,
			"max":[
				0.6596996188163757,
				0.30085840821266174,
				0.15347109735012054
			],
			"min":[
				-0.6596996188163757,
				-0.30085840821266174,
				-0.15347109735012054
			],
			"type":"VEC3"
		},
		{
			"bufferView":42,
			"componentType":5126,
			"count":42328,
			"type":"VEC3"
		},
		{
			"bufferView":43,
			"componentType":5126,
			"count":42328,
			"type":"VEC2"
		},
		{
			"bufferView":44,
			"componentType":5123,
			"count":71814,
			"type":"SCALAR"
		},
		{
			"bufferView":45,
			"componentType":5126,
			"count":701,
			"max":[
				0.5391687154769897,
				0.10086389631032944,
				0.07497190684080124
			],
			"min":[
				0.4486035108566284,
				0.04439549893140793,
				0.0025688998866826296
			],
			"type":"VEC3"
		},
		{
			"bufferView":46,
			"componentType":5126,
			"count":701,
			"type":"VEC3"
		},
		{
			"bufferView":47,
			"componentType":5123,
			"count":1224,
			"type":"SCALAR"
		}
	],
	"bufferViews":[
		{
			"buffer":0,
			"byteLength":1716,
			"byteOffset":0,
			"target":34962
		},
		{
			"buffer":0,
			"byteLength":1716,
			"byteOffset":1716,
			"target":34962
		},
		{
			"buffer":0,
			"byteLength":1144,
			"byteOffset":3432,
			"target":34962
		},
		{
			"buffer":0,
			"byteLength":1440,
			"byteOffset":4576,
			"target":34963
		},
		{
			"buffer":0,
			"byteLength":284856,
			"byteOffset":6016,
			"target":34962
		},
		{
			"buffer":0,
			"byteLength":284856,
			"byteOffset":290872,
			"target":34962
		},
		{
			"buffer":0,
			"byteLength":189904,
			"byteOffset":575728,
			"target":34962
		},
		{
			"buffer":0,
			"byteLength":90108,
			"byteOffset":765632,
			"target":34963
		},
		{
			"buffer":0,
			"byteLength":676536,
			"byteOffset":855740,
			"target":34962
		},
		{
			"buffer":0,
			"byteLength":676536,
			"byteOffset":1532276,
			"target":34962
		},
		{
			"buffer":0,
			"byteLength":451024,
			"byteOffset":2208812,
			"target":34962
		},
		{
			"buffer":0,
			"byteLength":209208,
			"byteOffset":2659836,
			"target":34963
		},
		{
			"buffer":0,
			"byteLength":15912,
			"byteOffset":2869044,
			"target":34962
		},
		{
			"buffer":0,
			"byteLength":15912,
			"byteOffset":2884956,
			"target":34962
		},
		{
			"buffer":0,
			"byteLength":10608,
			"byteOffset":2900868,
			"target":34962
		},
		{
			"buffer":0,
			"byteLength":10608,
			"byteOffset":2911476,
			"target":34962
		},
		{
			"buffer":0,
			"byteLength":6756,
			"byteOffset":2922084,
			"target":34963
		},
		{
			"buffer":0,
			"byteLength":174912,
			"byteOffset":2928840,
			"target":34962
		},
		{
			"buffer":0,
			"byteLength":174912,
			"byteOffset":3103752,
			"target":34962
		},
		{
			"buffer":0,
			"byteLength":116608,
			"byteOffset":3278664,
			"target":34962
		},
		{
			"buffer":0,
			"byteLength":54396,
			"byteOffset":3395272,
			"target":34963
		},
		{
			"buffer":0,
			"byteLength":1404,
			"byteOffset":3449668,
			"target":34962
		},
		{
			"buffer":0,
			"byteLength":1404,
			"byteOffset":3451072,
			"target":34962
		},
		{
			"buffer":0,
			"byteLength":936,
			"byteOffset":3452476,
			"target":34962
		},
		{
			"buffer":0,
			"byteLength":408,
			"byteOffset":3453412,
			"target":34963
		},
		{
			"buffer":0,
			"byteLength":167628,
			"byteOffset":3453820,
			"target":34962
		},
		{
			"buffer":0,
			"byteLength":167628,
			"byteOffset":3621448,
			"target":34962
		},
		{
			"buffer":0,
			"byteLength":111752,
			"byteOffset":3789076,
			"target":34962
		},
		{
			"buffer":0,
			"byteLength":54036,
			"byteOffset":3900828,
			"target":34963
		},
		{
			"buffer":0,
			"byteLength":4596,
			"byteOffset":3954864,
			"target":34962
		},
		{
			"buffer":0,
			"byteLength":4596,
			"byteOffset":3959460,
			"target":34962
		},
		{
			"buffer":0,
			"byteLength":3064,
			"byteOffset":3964056,
			"target":34962
		},
		{
			"buffer":0,
			"byteLength":3372,
			"byteOffset":3967120,
			"target":34963
		},
		{
			"buffer":0,
			"byteLength":1752,
			"byteOffset":3970492,
			"target":34962
		},
		{
			"buffer":0,
			"byteLength":1752,
			"byteOffset":3972244,
			"target":34962
		},
		{
			"buffer":0,
			"byteLength":1168,
			"byteOffset":3973996,
			"target":34962
		},
		{
			"buffer":0,
			"byteLength":1032,
			"byteOffset":3975164,
			"target":34963
		},
		{
			"buffer":0,
			"byteLength":435576,
			"byteOffset":3976196,
			"target":34962
		},
		{
			"buffer":0,
			"byteLength":435576,
			"byteOffset":4411772,
			"target":34962
		},
		{
			"buffer":0,
			"byteLength":290384,
			"byteOffset":4847348,
			"target":34962
		},
		{
			"buffer":0,
			"byteLength":179856,
			"byteOffset":5137732,
			"target":34963
		},
		{
			"buffer":0,
			"byteLength":507936,
			"byteOffset":5317588,
			"target":34962
		},
		{
			"buffer":0,
			"byteLength":507936,
			"byteOffset":5825524,
			"target":34962
		},
		{
			"buffer":0,
			"byteLength":338624,
			"byteOffset":6333460,
			"target":34962
		},
		{
			"buffer":0,
			"byteLength":143628,
			"byteOffset":6672084,
			"target":34963
		},
		{
			"buffer":0,
			"byteLength":8412,
			"byteOffset":6815712,
			"target":34962
		},
		{
			"buffer":0,
			"byteLength":8412,
			"byteOffset":6824124,
			"target":34962
		},
		{
			"buffer":0,
			"byteLength":2448,
			"byteOffset":6832536,
			"target":34963
		}
	],
	"samplers":[
		{
			"magFilter":9729,
			"minFilter":9987
		}
	],
	"buffers":[
		{
			"byteLength":6834984,
			"uri":"cabin.bin"
		}
	]
}
